<mxfile host="app.diagrams.net" modified="2021-12-31T01:51:16.604Z" agent="5.0 (Windows)" etag="WriEqCGXBtJP7uPgLSQt" version="16.1.2" type="github">
  <diagram name="Page-1" id="03018318-947c-dd8e-b7a3-06fadd420f32">
    <mxGraphModel dx="1422" dy="2069" grid="1" gridSize="10" guides="1" tooltips="1" connect="1" arrows="1" fold="1" page="1" pageScale="1" pageWidth="827" pageHeight="1169" background="none" math="0" shadow="0">
      <root>
        <mxCell id="0" />
        <mxCell id="1" parent="0" />
        <mxCell id="P8M4lGAi6NLH_WPJbPbD-1" value="TABLET VIEW" style="strokeWidth=1;shadow=0;dashed=0;align=center;html=1;shape=mxgraph.mockup.containers.window;align=left;verticalAlign=top;spacingLeft=8;strokeColor2=#008cff;strokeColor3=#c4c4c4;fontColor=#666666;mainText=;fontSize=17;labelBackgroundColor=none;" vertex="1" parent="1">
          <mxGeometry x="90" y="-600" width="600" height="380" as="geometry" />
        </mxCell>
        <mxCell id="5nZS52JuUzNSH71qjn3m-15" value="MOBILE VIEW" style="strokeWidth=1;shadow=0;dashed=0;align=center;html=1;shape=mxgraph.mockup.containers.window;align=left;verticalAlign=top;spacingLeft=8;strokeColor2=#008cff;strokeColor3=#c4c4c4;fontColor=#666666;mainText=;fontSize=17;labelBackgroundColor=none;" parent="1" vertex="1">
          <mxGeometry x="150" y="-1160" width="370" height="540" as="geometry" />
        </mxCell>
        <mxCell id="5nZS52JuUzNSH71qjn3m-3" value="LOGO" style="ellipse;whiteSpace=wrap;html=1;" parent="1" vertex="1">
          <mxGeometry x="300" y="-1130" width="60" height="60" as="geometry" />
        </mxCell>
        <mxCell id="5nZS52JuUzNSH71qjn3m-4" value="header" style="rounded=0;whiteSpace=wrap;html=1;" parent="1" vertex="1">
          <mxGeometry x="150" y="-1060" width="370" height="50" as="geometry" />
        </mxCell>
        <mxCell id="5nZS52JuUzNSH71qjn3m-5" value="nav" style="rounded=0;whiteSpace=wrap;html=1;" parent="1" vertex="1">
          <mxGeometry x="150" y="-1010" width="370" height="30" as="geometry" />
        </mxCell>
        <mxCell id="5nZS52JuUzNSH71qjn3m-6" value="nav" style="rounded=0;whiteSpace=wrap;html=1;" parent="1" vertex="1">
          <mxGeometry x="150" y="-980" width="370" height="30" as="geometry" />
        </mxCell>
        <mxCell id="5nZS52JuUzNSH71qjn3m-7" value="nav" style="rounded=0;whiteSpace=wrap;html=1;" parent="1" vertex="1">
          <mxGeometry x="150" y="-950" width="370" height="30" as="geometry" />
        </mxCell>
        <mxCell id="5nZS52JuUzNSH71qjn3m-8" value="nav" style="rounded=0;whiteSpace=wrap;html=1;" parent="1" vertex="1">
          <mxGeometry x="150" y="-920" width="370" height="30" as="geometry" />
        </mxCell>
        <mxCell id="5nZS52JuUzNSH71qjn3m-10" value="nav" style="rounded=0;whiteSpace=wrap;html=1;" parent="1" vertex="1">
          <mxGeometry x="150" y="-890" width="370" height="30" as="geometry" />
        </mxCell>
        <mxCell id="5nZS52JuUzNSH71qjn3m-11" value="nav" style="rounded=0;whiteSpace=wrap;html=1;" parent="1" vertex="1">
          <mxGeometry x="150" y="-860" width="370" height="30" as="geometry" />
        </mxCell>
        <mxCell id="5nZS52JuUzNSH71qjn3m-12" value="" style="verticalLabelPosition=bottom;shadow=0;dashed=0;align=center;html=1;verticalAlign=top;strokeWidth=1;shape=mxgraph.mockup.graphics.simpleIcon;strokeColor=#999999;rounded=0;labelBackgroundColor=none;fontFamily=Verdana;fontSize=14;fontColor=#000000;comic=1;" parent="1" vertex="1">
          <mxGeometry x="150" y="-830" width="370" height="160" as="geometry" />
        </mxCell>
        <mxCell id="5nZS52JuUzNSH71qjn3m-13" value="main" style="text;html=1;align=center;verticalAlign=middle;resizable=0;points=[];autosize=1;strokeColor=none;fillColor=none;" parent="1" vertex="1">
          <mxGeometry x="315" y="-790" width="40" height="20" as="geometry" />
        </mxCell>
        <mxCell id="5nZS52JuUzNSH71qjn3m-14" value="footer" style="rounded=0;whiteSpace=wrap;html=1;" parent="1" vertex="1">
          <mxGeometry x="150" y="-670" width="370" height="50" as="geometry" />
        </mxCell>
        <mxCell id="P8M4lGAi6NLH_WPJbPbD-3" value="header" style="rounded=0;whiteSpace=wrap;html=1;" vertex="1" parent="1">
          <mxGeometry x="90" y="-570" width="600" height="80" as="geometry" />
        </mxCell>
        <mxCell id="P8M4lGAi6NLH_WPJbPbD-2" value="LOGO" style="ellipse;whiteSpace=wrap;html=1;" vertex="1" parent="1">
          <mxGeometry x="150" y="-560" width="60" height="60" as="geometry" />
        </mxCell>
        <mxCell id="P8M4lGAi6NLH_WPJbPbD-4" value="navbar" style="rounded=0;whiteSpace=wrap;html=1;" vertex="1" parent="1">
          <mxGeometry x="90" y="-490" width="600" height="50" as="geometry" />
        </mxCell>
        <mxCell id="P8M4lGAi6NLH_WPJbPbD-5" value="" style="verticalLabelPosition=bottom;shadow=0;dashed=0;align=center;html=1;verticalAlign=top;strokeWidth=1;shape=mxgraph.mockup.graphics.simpleIcon;strokeColor=#999999;rounded=0;labelBackgroundColor=none;fontFamily=Verdana;fontSize=14;fontColor=#000000;comic=1;" vertex="1" parent="1">
          <mxGeometry x="90" y="-440" width="600" height="160" as="geometry" />
        </mxCell>
        <mxCell id="P8M4lGAi6NLH_WPJbPbD-6" value="footer" style="rounded=0;whiteSpace=wrap;html=1;" vertex="1" parent="1">
          <mxGeometry x="90" y="-280" width="600" height="60" as="geometry" />
        </mxCell>
        <mxCell id="P8M4lGAi6NLH_WPJbPbD-7" value="&amp;nbsp;DESKTOP VIEW" style="strokeWidth=1;shadow=0;dashed=0;align=center;html=1;shape=mxgraph.mockup.containers.window;align=left;verticalAlign=top;spacingLeft=8;strokeColor2=#008cff;strokeColor3=#c4c4c4;fontColor=#666666;mainText=;fontSize=17;labelBackgroundColor=none;" vertex="1" parent="1">
          <mxGeometry x="40" y="-200" width="760" height="380" as="geometry" />
        </mxCell>
        <mxCell id="P8M4lGAi6NLH_WPJbPbD-8" value="header" style="rounded=0;whiteSpace=wrap;html=1;" vertex="1" parent="1">
          <mxGeometry x="40" y="-170" width="760" height="80" as="geometry" />
        </mxCell>
        <mxCell id="P8M4lGAi6NLH_WPJbPbD-9" value="LOGO" style="ellipse;whiteSpace=wrap;html=1;" vertex="1" parent="1">
          <mxGeometry x="110" y="-160" width="60" height="60" as="geometry" />
        </mxCell>
        <mxCell id="P8M4lGAi6NLH_WPJbPbD-10" value="navbar" style="rounded=0;whiteSpace=wrap;html=1;" vertex="1" parent="1">
          <mxGeometry x="40" y="-90" width="760" height="50" as="geometry" />
        </mxCell>
        <mxCell id="P8M4lGAi6NLH_WPJbPbD-11" value="" style="verticalLabelPosition=bottom;shadow=0;dashed=0;align=center;html=1;verticalAlign=top;strokeWidth=1;shape=mxgraph.mockup.graphics.simpleIcon;strokeColor=#999999;rounded=0;labelBackgroundColor=none;fontFamily=Verdana;fontSize=14;fontColor=#000000;comic=1;" vertex="1" parent="1">
          <mxGeometry x="40" y="-40" width="760" height="160" as="geometry" />
        </mxCell>
        <mxCell id="P8M4lGAi6NLH_WPJbPbD-12" value="footer" style="rounded=0;whiteSpace=wrap;html=1;" vertex="1" parent="1">
          <mxGeometry x="40" y="120" width="760" height="60" as="geometry" />
        </mxCell>
      </root>
    </mxGraphModel>
  </diagram>
</mxfile>
